<svg xmlns="http://www.w3.org/2000/svg" version="1.1" xmlns:xlink="http://www.w3.org/1999/xlink" xmlns:svgjs="http://svgjs.com/svgjs" width="1440" height="1000" preserveAspectRatio="none" viewBox="0 0 1440 1000"><g mask="url(&quot;#SvgjsMask1041&quot;)" fill="none"><rect width="1440" height="1000" x="0" y="0" fill="rgba(188, 168, 252, 1)"></rect><path d="M1512 1000L0 1000 L0 724.61Q-50.75 601.87, 72 551.12Q85.33 492.45, 144 505.78Q213.7 455.48, 264 525.18Q331.74 520.91, 336 588.65Q357.29 489.94, 456 511.23Q533.02 468.25, 576 545.27Q699.3 548.57, 696 671.86Q747.52 651.38, 768 702.9Q779.1 642, 840 653.1Q836.04 577.14, 912 573.18Q942.53 531.71, 984 562.24Q1006.98 513.22, 1056 536.19Q1145.84 506.03, 1176 595.86Q1239.13 586.99, 1248 650.12Q1250.42 580.54, 1320 582.96Q1323.27 514.23, 1392 517.5Q1457.43 462.93, 1512 528.36z" fill="rgba(218, 247, 220, 1)"></path><path d="M1464 1000L0 1000 L0 877.01Q24.44 829.45, 72 853.9Q153.46 815.36, 192 896.81Q194.83 827.63, 264 830.46Q254.35 748.81, 336 739.15Q379.5 662.65, 456 706.15Q552.4 682.55, 576 778.94Q624.6 707.54, 696 756.13Q715.58 655.71, 816 675.29Q884.09 623.38, 936 691.46Q1011.94 647.4, 1056 723.35Q1111.09 706.43, 1128 761.52Q1221.97 783.49, 1200 877.46Q1160.53 765.99, 1272 726.51Q1305.44 639.95, 1392 673.4Q1437.03 646.43, 1464 691.47z" fill="rgba(255, 255, 255, 1)"></path><path d="M1512 1000L0 1000 L0 912.22Q66.78 907, 72 973.79Q126.14 955.93, 144 1010.08Q144.9 890.98, 264 891.88Q314.51 822.39, 384 872.91Q449.47 866.38, 456 931.84Q466.91 822.75, 576 833.66Q644.12 781.77, 696 849.89Q774.47 808.36, 816 886.83Q957.53 908.37, 936 1049.9Q905.03 898.94, 1056 867.97Q1107.73 799.71, 1176 851.44Q1237.16 840.61, 1248 901.77Q1324.59 906.36, 1320 982.94Q1391.83 934.77, 1440 1006.6Q1442.81 937.41, 1512 940.22z" fill="rgba(60, 148, 130, 1)"></path></g><defs><mask id="SvgjsMask1041"><rect width="1440" height="1000" fill="#ffffff"></rect></mask></defs></svg>